<svg width="687" height="597" viewBox="0 0 687 597" fill="none" xmlns="http://www.w3.org/2000/svg">
<ellipse cx="343.081" cy="188.831" rx="188.831" ry="188.831" fill="#F8B483"/>
<path d="M124.384 455.571C130.888 455.571 136.517 456.654 141.273 458.822C146.098 460.99 149.805 464.067 152.392 468.054C154.98 472.04 156.273 476.76 156.273 482.215C156.273 487.6 154.98 492.32 152.392 496.376C149.805 500.363 146.098 503.44 141.273 505.607C136.517 507.705 130.888 508.754 124.384 508.754H109.593V529H92.5995V455.571H124.384ZM123.44 494.908C128.545 494.908 132.426 493.824 135.084 491.656C137.741 489.418 139.07 486.271 139.07 482.215C139.07 478.089 137.741 474.942 135.084 472.774C132.426 470.536 128.545 469.417 123.44 469.417H109.593V494.908H123.44ZM213.076 513.265H178.984L172.48 529H155.067L187.796 455.571H204.579L237.413 529H219.58L213.076 513.265ZM207.726 500.363L196.083 472.25L184.439 500.363H207.726ZM279.148 530.259C271.665 530.259 264.882 528.65 258.798 525.433C252.783 522.147 248.028 517.636 244.531 511.901C241.105 506.097 239.391 499.558 239.391 492.285C239.391 485.012 241.105 478.508 244.531 472.774C248.028 466.97 252.783 462.459 258.798 459.242C264.882 455.955 271.7 454.312 279.253 454.312C285.617 454.312 291.351 455.431 296.456 457.669C301.631 459.906 305.967 463.123 309.464 467.319L298.554 477.39C293.589 471.655 287.435 468.788 280.092 468.788C275.547 468.788 271.49 469.802 267.924 471.83C264.357 473.788 261.56 476.55 259.532 480.117C257.574 483.684 256.595 487.74 256.595 492.285C256.595 496.831 257.574 500.887 259.532 504.454C261.56 508.02 264.357 510.817 267.924 512.846C271.49 514.804 275.547 515.783 280.092 515.783C287.435 515.783 293.589 512.88 298.554 507.076L309.464 517.146C305.967 521.412 301.631 524.664 296.456 526.902C291.281 529.14 285.512 530.259 279.148 530.259ZM354.544 530.259C347.062 530.259 340.278 528.65 334.194 525.433C328.18 522.147 323.424 517.636 319.928 511.901C316.501 506.097 314.788 499.558 314.788 492.285C314.788 485.012 316.501 478.508 319.928 472.774C323.424 466.97 328.18 462.459 334.194 459.242C340.278 455.955 347.097 454.312 354.649 454.312C361.013 454.312 366.748 455.431 371.853 457.669C377.028 459.906 381.364 463.123 384.86 467.319L373.951 477.39C368.986 471.655 362.831 468.788 355.488 468.788C350.943 468.788 346.887 469.802 343.32 471.83C339.754 473.788 336.956 476.55 334.928 480.117C332.97 483.684 331.991 487.74 331.991 492.285C331.991 496.831 332.97 500.887 334.928 504.454C336.956 508.02 339.754 510.817 343.32 512.846C346.887 514.804 350.943 515.783 355.488 515.783C362.831 515.783 368.986 512.88 373.951 507.076L384.86 517.146C381.364 521.412 377.028 524.664 371.853 526.902C366.678 529.14 360.908 530.259 354.544 530.259ZM450.254 490.817C454.45 492.145 457.737 494.383 460.115 497.53C462.493 500.607 463.681 504.419 463.681 508.964C463.681 515.398 461.164 520.363 456.129 523.86C451.163 527.287 443.89 529 434.31 529H396.336V455.571H432.212C441.163 455.571 448.016 457.284 452.772 460.711C457.597 464.137 460.01 468.788 460.01 474.662C460.01 478.229 459.136 481.411 457.387 484.208C455.709 487.005 453.331 489.208 450.254 490.817ZM413.225 468.368V485.677H430.114C434.31 485.677 437.492 484.942 439.659 483.474C441.827 482.005 442.911 479.837 442.911 476.97C442.911 474.103 441.827 471.97 439.659 470.571C437.492 469.103 434.31 468.368 430.114 468.368H413.225ZM433.051 516.202C437.527 516.202 440.883 515.468 443.121 513.999C445.429 512.531 446.583 510.258 446.583 507.181C446.583 501.097 442.072 498.055 433.051 498.055H413.225V516.202H433.051ZM533.403 515.363V529H476.547V455.571H532.039V469.207H493.436V485.152H527.528V498.369H493.436V515.363H533.403ZM562.134 469.417H538.637V455.571H602.625V469.417H579.128V529H562.134V469.417Z" fill="#0D567E"/>
</svg>
